<?xml version="1.0" encoding="UTF-8"?>
<svg id="Design" xmlns="http://www.w3.org/2000/svg" version="1.1" viewBox="0 0 127.2 144">
  <!-- Generator: Adobe Illustrator 29.3.1, SVG Export Plug-In . SVG Version: 2.1.0 Build 151)  -->
  <defs>
    <style>
      .st0 {
        fill: #86cac6;
      }

      .st1 {
        isolation: isolate;
      }

      .st2 {
        fill: #1d252d;
      }

      .st3 {
        fill: #ff7f41;
      }

      .st4 {
        fill: #fff;
      }

      .st5 {
        fill: #004f5b;
      }

      .st6 {
        fill: #7c878e;
      }
    </style>
  </defs>
  <g>
    <path class="st2" d="M63.6,142c-1.3,0-2.5-.3-3.6-1L5.6,109.7c-2.2-1.3-3.6-3.7-3.6-6.3v-62.8c0-2.6,1.4-5,3.6-6.3L60,3c1.1-.6,2.3-1,3.6-1s2.5.3,3.6,1l54.3,31.4c2.2,1.3,3.6,3.7,3.6,6.3v62.8c0,2.6-1.4,5-3.6,6.3l-54.3,31.4c-1.1.6-2.3,1-3.6,1Z"/>
    <path class="st4" d="M63.6,4c.9,0,1.8.2,2.6.7l54.3,31.4c1.6.9,2.6,2.7,2.6,4.5v62.8c0,1.9-1,3.6-2.6,4.5l-54.3,31.4c-.8.5-1.7.7-2.6.7s-1.8-.2-2.6-.7L6.6,107.9c-1.6-.9-2.6-2.7-2.6-4.5v-62.8c0-1.9,1-3.6,2.6-4.5L61,4.7c.8-.5,1.7-.7,2.6-.7M63.6,0c-1.6,0-3.2.4-4.6,1.2L4.6,32.6c-2.9,1.7-4.6,4.7-4.6,8v62.8c0,3.3,1.8,6.3,4.6,8l54.3,31.4c1.4.8,3,1.2,4.6,1.2s3.2-.4,4.6-1.2l54.3-31.4c2.9-1.7,4.6-4.7,4.6-8v-62.8c0-3.3-1.8-6.3-4.6-8L68.2,1.2c-1.4-.8-3-1.2-4.6-1.2h0Z"/>
  </g>
  <g class="st1">
    <g class="st1">
      <path class="st4" d="M41.3,41.6c-.6,0-1.1,0-1.4,0-.4,0-.7.2-.9.4s-.4.5-.4,1c0,.4-.1,1-.1,1.7v1.1c0,.7,0,1.3.1,1.7s.2.7.5,1c.2.2.5.4.9.4.4,0,.8,0,1.4,0s1.4,0,1.9,0c.5,0,.8,0,1.2,0l-.4,1.9c-.4,0-.8,0-1.3,0-.5,0-1,0-1.3,0-1,0-1.8,0-2.4-.3s-1.2-.5-1.6-.9c-.4-.4-.7-.9-.9-1.6-.2-.6-.3-1.4-.3-2.4v-1.1c0-.9,0-1.7.3-2.4.2-.6.5-1.2.9-1.6.4-.4.9-.7,1.6-.9s1.5-.3,2.4-.3.9,0,1.4,0c.5,0,1.1,0,1.6,0l-.4,1.9c-.6,0-1.1,0-1.5,0s-.8,0-1.1,0Z"/>
      <path class="st4" d="M46.5,34.9h2.3v16h-2.3v-16Z"/>
      <path class="st4" d="M53.8,36.5c0,.5-.1.9-.3,1.1-.2.2-.6.3-1.1.3s-.9-.1-1.1-.3-.3-.6-.3-1.1.1-.9.3-1.1c.2-.2.6-.3,1.1-.3s.9.1,1.1.3c.2.2.3.6.3,1.1ZM51.2,39.8h2.3v11.1h-2.3v-11.1Z"/>
      <path class="st4" d="M56,50.9v-7.8c0-1.3.4-2.2,1.2-2.8s2-.8,3.7-.8,2.9.3,3.7.8,1.2,1.5,1.2,2.8v7.8h-2.3v-7.4c0-.4,0-.7,0-.9,0-.3-.2-.5-.3-.7-.2-.2-.4-.3-.8-.4-.4,0-.9-.1-1.5-.1s-1.1,0-1.5.1c-.4,0-.6.2-.8.4s-.3.4-.3.7c0,.3,0,.6,0,.9v7.4h-2.3Z"/>
      <path class="st4" d="M70.9,36.5c0,.5-.1.9-.3,1.1s-.6.3-1.1.3-.9-.1-1.1-.3c-.2-.2-.3-.6-.3-1.1s.1-.9.3-1.1c.2-.2.6-.3,1.1-.3s.9.1,1.1.3c.2.2.3.6.3,1.1ZM68.3,39.8h2.3v11.1h-2.3v-11.1Z"/>
      <path class="st4" d="M78.3,36.7c-.6,0-1.1,0-1.5.1s-.7.2-.9.4-.4.5-.4.9c0,.4-.1.9-.1,1.6h4.2l-.4,1.9h-3.8v9.2h-2.3v-11c0-.9,0-1.7.2-2.3.2-.6.4-1.1.8-1.5.4-.4.9-.7,1.5-.9.6-.2,1.4-.3,2.3-.3s.7,0,1.2,0c.5,0,.9,0,1.3,0l-.4,1.9c-.3,0-.6,0-.9,0-.4,0-.6,0-.8,0Z"/>
      <path class="st4" d="M82.1,52.8c.7,0,1.3,0,1.9,0h1.6c.5,0,1,0,1.4-.1.4,0,.7-.3.9-.5.2-.2.4-.5.5-.9,0-.4.2-.9.2-1.5v-.2c-.1.1-.3.2-.4.3-.2.1-.4.2-.6.3s-.5.2-.9.2c-.4,0-.8,0-1.3,0-1.4,0-2.4-.3-3.2-.8-.7-.5-1.1-1.4-1.1-2.8v-7.2h2.3v6.7c0,.4,0,.7,0,.9,0,.3.1.5.3.7.2.2.4.3.7.4.3,0,.8.1,1.3.1s1.1,0,1.5-.1c.4,0,.7-.2.9-.4s.3-.4.4-.8c0-.3.1-.7.1-1.1v-6.4h2.3v10c0,.9,0,1.6-.3,2.3-.2.6-.5,1.1-.9,1.5-.4.4-1,.7-1.6.8s-1.4.3-2.3.3h-1.8c-.3,0-.6,0-1,0s-.7,0-1.2,0l.4-1.9Z"/>
    </g>
  </g>
  <g>
    <rect class="st0" x="38.5" y="64" width="48.6" height="4.9"/>
    <path class="st4" d="M38.2,72.5v3.1h-19.5v-3.1h19.5M39.2,71.5h-21.5v5.1h21.5v-5.1h0Z"/>
    <path class="st4" d="M61.2,72.5v3.1h-19.5v-3.1h19.5M62.2,71.5h-21.5v5.1h21.5v-5.1h0Z"/>
    <path class="st4" d="M84.1,72.5v3.1h-19.5v-3.1h19.5M85.1,71.5h-21.5v5.1h21.5v-5.1h0Z"/>
    <path class="st4" d="M107.1,72.5v3.1h-19.5v-3.1h19.5M108.1,71.5h-21.5v5.1h21.5v-5.1h0Z"/>
    <path class="st4" d="M38.2,79.1v3.1h-19.5v-3.1h19.5M39.2,78.1h-21.5v5.1h21.5v-5.1h0Z"/>
    <path class="st4" d="M61.2,79.1v3.1h-19.5v-3.1h19.5M62.2,78.1h-21.5v5.1h21.5v-5.1h0Z"/>
    <path class="st4" d="M84.1,79.1v3.1h-19.5v-3.1h19.5M85.1,78.1h-21.5v5.1h21.5v-5.1h0Z"/>
    <path class="st4" d="M107.1,79.1v3.1h-19.5v-3.1h19.5M108.1,78.1h-21.5v5.1h21.5v-5.1h0Z"/>
    <path class="st4" d="M38.2,85.6v3.1h-19.5v-3.1h19.5M39.2,84.6h-21.5v5.1h21.5v-5.1h0Z"/>
    <path class="st4" d="M61.2,85.6v3.1h-19.5v-3.1h19.5M62.2,84.6h-21.5v5.1h21.5v-5.1h0Z"/>
    <path class="st4" d="M84.1,85.6v3.1h-19.5v-3.1h19.5M85.1,84.6h-21.5v5.1h21.5v-5.1h0Z"/>
    <path class="st4" d="M107.1,85.6v3.1h-19.5v-3.1h19.5M108.1,84.6h-21.5v5.1h21.5v-5.1h0Z"/>
    <path class="st4" d="M38.2,92.1v3.1h-19.5v-3.1h19.5M39.2,91.1h-21.5v5.1h21.5v-5.1h0Z"/>
    <path class="st4" d="M61.2,92.1v3.1h-19.5v-3.1h19.5M62.2,91.1h-21.5v5.1h21.5v-5.1h0Z"/>
    <path class="st4" d="M84.1,92.1v3.1h-19.5v-3.1h19.5M85.1,91.1h-21.5v5.1h21.5v-5.1h0Z"/>
    <path class="st4" d="M107.1,92.1v3.1h-19.5v-3.1h19.5M108.1,91.1h-21.5v5.1h21.5v-5.1h0Z"/>
    <path class="st4" d="M38.2,98.6v3.1h-19.5v-3.1h19.5M39.2,97.6h-21.5v5.1h21.5v-5.1h0Z"/>
    <path class="st4" d="M61.2,98.6v3.1h-19.5v-3.1h19.5M62.2,97.6h-21.5v5.1h21.5v-5.1h0Z"/>
    <path class="st4" d="M84.1,98.6v3.1h-19.5v-3.1h19.5M85.1,97.6h-21.5v5.1h21.5v-5.1h0Z"/>
    <path class="st4" d="M107.1,98.6v3.1h-19.5v-3.1h19.5M108.1,97.6h-21.5v5.1h21.5v-5.1h0Z"/>
    <rect class="st0" x="17.7" y="105.9" width="52.7" height="1.7"/>
  </g>
  <g>
    <path class="st0" d="M85.2,88.3s0,0,0,0c0,0,0,0,0,0,0,0,0,0-.1-.1h0c0,0-.1-.2-.2-.2,0,0,0,0,0,0,0,0,0-.1-.1-.2,0,0,0,0,0,0l-1.3,1.5,2.1,1.8,1.4-1.6-1.2-.7c0,0-.2-.1-.2-.2h0Z"/>
    <path class="st0" d="M86.1,85.6c-.2.3-.2.6-.2.7,0,.2.1.4.4.6l2.7,1.6c.4.2.8.1,1.1-.2l.8-.9-3.7-3.2-1.1,1.3h0Z"/>
    <path class="st0" d="M69.9,105.9c-.2.2-.1.5,0,.6.2.2.5.1.6,0l12.8-15-.7-.6s-12.8,15-12.9,15Z"/>
    <path class="st4" d="M107.6,63.9l1.2-1.3.4-.5-1.8-1.6-5.5-4.7-.9,1.1,3.9,4.3-17.2,20.1c-.3.3-.2.8,0,1.1l5.1,4.4c.3.3.8.2,1.1,0l14.5-16.9-3.3-2.9,2.6-3h0ZM94.4,80.9l-3.1-2.7,8.7-10.1,3.1,2.7-8.7,10.1Z"/>
    <rect class="st6" x="92.3" y="74.3" width="9.8" height=".5" transform="translate(-22.7 99.8) rotate(-49.4)"/>
    <polygon class="st0" points="109.8 60.4 110.3 60.8 111.1 61.4 114.4 57.5 113.2 56.4 109.8 60.4"/>
    <path class="st0" d="M112.9,52.5c-.1-.1-.3,0-.5,0l-.2.2c-.1.1,0,.3,0,.5l.7.6,3.9,3.3.7.6c.1.1.3,0,.5,0l.2-.2c.1-.1,0-.3,0-.5,0,0-5.4-4.6-5.4-4.6Z"/>
    <polygon class="st0" points="110.5 63.3 110.1 63.8 113.5 66.6 113.7 66.8 114.1 66.3 111.3 63.9 110.5 63.3"/>
    <rect class="st3" x="108.2" y="65.4" width="2.1" height="2.6" transform="translate(-12.6 106.2) rotate(-49.4)"/>
    <path class="st5" d="M119.5,55.8l-5.4-4.6c-.9-.8-2.2-.7-3,.2l-.2.2c-.8.9-.7,2.2.2,3l.7.6-3.4,4-5.6-4.8c-.7-.6-1.8-.5-2.3.2l-1,1.2c-.6.6-.5,1.6,0,2.2l2.9,3.2-16.2,18.9c-.7.8-.8,2-.3,2.9l-1.2,1.4-3.1,3.6c-.4.5-.5,1.2-.2,1.7l-12.9,15.1c-.8.9-.7,2.3.2,3.1.9.8,2.3.7,3.1-.2l12.9-15.1c.6.2,1.2,0,1.6-.5l1.7-2c1.1.6,2.4.4,3.3-.6l.8-1c1,.4,2.2.2,2.9-.7l14.5-16.9,1.2-1.3,1.4-1.6,1.5,1.3,2.7-3.2-4.1-3.5,3.4-4,.7.6c.9.8,2.2.7,3-.2l.2-.2c.8-.9.7-2.2-.2-3h0ZM70.6,106.5c-.2.2-.4.2-.6,0-.2-.2-.2-.4,0-.6l12.8-15,.7.6s-12.8,15-12.8,15ZM85.3,90.8l-2.1-1.8,1.3-1.5s0,0,0,0c0,0,0,.1.1.2,0,0,0,0,0,0,0,0,.1.2.2.2h0c0,0,0,.1.1.1,0,0,0,0,0,0,0,0,0,0,0,0,0,0,.2.1.2.2l1.2.7-1.4,1.6h0ZM90.1,88.4c-.3.3-.7.4-1.1.2l-2.7-1.6c-.3-.2-.4-.4-.4-.6,0-.2,0-.4.2-.7l1.1-1.3,3.7,3.2-.8.9h0ZM93.9,86.7c-.3.3-.8.4-1.1,0l-5.1-4.4c-.3-.3-.4-.8,0-1.1l17.2-20.1-3.9-4.3.9-1.1,5.5,4.7,1.8,1.6-.4.5-1.2,1.3-2.6,3,3.3,2.9-14.5,16.9h0ZM109.6,68.4l-2-1.7,1.4-1.6,2,1.7-1.4,1.6ZM114.1,66.3l-.4.5h-.2c0-.1-3.3-3-3.3-3l.4-.5.7.6s2.8,2.4,2.8,2.4ZM111.1,61.4l-.7-.6-.5-.4,3.4-4,1.2,1s-3.4,4-3.4,3.9ZM118.3,57.6l-.2.2c-.1.1-.3.2-.5,0l-.7-.6-3.9-3.3-.7-.6c-.1-.1-.2-.3,0-.5l.2-.2c.1-.1.3-.2.5,0l5.4,4.6c.1.1.2.3,0,.5Z"/>
    <path class="st5" d="M91.3,78.3l3.1,2.7,8.7-10.1-3.1-2.7-8.7,10.1ZM94.2,78.4l-.4-.3,6.4-7.4.4.3-6.4,7.4Z"/>
  </g>
  <path class="st0" d="M110.3,36.2c-1.2,0-2.1,1-2.1,2.1s.9,2.1,2.1,2.1,2.1-1,2.1-2.1-.9-2.1-2.1-2.1ZM110.3,39c-.4,0-.7-.3-.7-.7s.3-.7.7-.7.7.3.7.7-.3.7-.7.7Z"/>
  <path class="st0" d="M50.3,117.2c-1.2,0-2.1.9-2.1,2.1s1,2.1,2.1,2.1,2.1-.9,2.1-2.1-1-2.1-2.1-2.1ZM50.3,120.1c-.4,0-.7-.3-.7-.7s.3-.7.7-.7.7.3.7.7-.3.7-.7.7Z"/>
  <path class="st0" d="M12,57.5c1.2,0,2.1-1,2.1-2.1s-.9-2.1-2.1-2.1-2.1,1-2.1,2.1.9,2.1,2.1,2.1ZM12,54.6c.4,0,.7.3.7.7s-.3.7-.7.7-.7-.3-.7-.7.3-.7.7-.7Z"/>
  <path class="st0" d="M112.9,104.1c1.2,0,2.1-.9,2.1-2.1s-.9-2.1-2.1-2.1-2.1.9-2.1,2.1.9,2.1,2.1,2.1ZM112.9,101.2c.4,0,.7.3.7.7s-.3.7-.7.7-.7-.3-.7-.7.3-.7.7-.7Z"/>
  <polygon class="st0" points="83.9 116.6 85.4 116.6 85.4 115.3 86.6 115.3 86.6 113.9 85.4 113.9 85.4 112.7 83.9 112.7 83.9 113.9 82.7 113.9 82.7 115.3 83.9 115.3 83.9 116.6"/>
  <polygon class="st0" points="34.7 60.4 33.3 60.4 33.3 61.6 32.1 61.6 32.1 63.1 33.3 63.1 33.3 64.3 34.7 64.3 34.7 63.1 36 63.1 36 61.6 34.7 61.6 34.7 60.4"/>
  <polygon class="st0" points="10.9 97.9 9.5 97.9 9.5 99.1 8.3 99.1 8.3 100.5 9.5 100.5 9.5 101.7 10.9 101.7 10.9 100.5 12.1 100.5 12.1 99.1 10.9 99.1 10.9 97.9"/>
  <polygon class="st0" points="118 70.6 116.6 70.6 116.6 71.8 115.3 71.8 115.3 73.2 116.6 73.2 116.6 74.4 118 74.4 118 73.2 119.2 73.2 119.2 71.8 118 71.8 118 70.6"/>
  <polygon class="st0" points="60.1 18.5 58.7 18.5 58.7 19.7 57.4 19.7 57.4 21.1 58.7 21.1 58.7 22.4 60.1 22.4 60.1 21.1 61.3 21.1 61.3 19.7 60.1 19.7 60.1 18.5"/>
</svg>